<svg width="30" height="31" viewBox="0 0 30 31" fill="none" xmlns="http://www.w3.org/2000/svg">
<g filter="url(#filter0_dd_1_18)">
<path d="M15 5C11.134 5 8 8.13401 8 12C8 15.866 11.134 19 15 19C17.7924 19 20.2029 17.3649 21.3264 15H24H25.5859C24.2801 19.617 20.0351 23 15 23C8.92487 23 4 18.0751 4 12C4 5.92487 8.92487 1 15 1C20.0351 1 24.2801 4.38299 25.5859 9H24H21.3264C20.2029 6.63505 17.7924 5 15 5Z" fill="url(#paint0_linear_1_18)"/>
</g>
<defs>
<filter id="filter0_dd_1_18" x="-1" y="0" width="32" height="32" filterUnits="userSpaceOnUse" color-interpolation-filters="sRGB">
<feFlood flood-opacity="0" result="BackgroundImageFix"/>
<feColorMatrix in="SourceAlpha" type="matrix" values="0 0 0 0 0 0 0 0 0 0 0 0 0 0 0 0 0 0 127 0" result="hardAlpha"/>
<feOffset dy="4"/>
<feGaussianBlur stdDeviation="2"/>
<feComposite in2="hardAlpha" operator="out"/>
<feColorMatrix type="matrix" values="0 0 0 0 0 0 0 0 0 0 0 0 0 0 0 0 0 0 0.25 0"/>
<feBlend mode="normal" in2="BackgroundImageFix" result="effect1_dropShadow_1_18"/>
<feColorMatrix in="SourceAlpha" type="matrix" values="0 0 0 0 0 0 0 0 0 0 0 0 0 0 0 0 0 0 127 0" result="hardAlpha"/>
<feOffset dy="4"/>
<feGaussianBlur stdDeviation="2"/>
<feComposite in2="hardAlpha" operator="out"/>
<feColorMatrix type="matrix" values="0 0 0 0 0 0 0 0 0 0 0 0 0 0 0 0 0 0 0.25 0"/>
<feBlend mode="normal" in2="effect1_dropShadow_1_18" result="effect2_dropShadow_1_18"/>
<feBlend mode="normal" in="SourceGraphic" in2="effect2_dropShadow_1_18" result="shape"/>
</filter>
<linearGradient id="paint0_linear_1_18" x1="19.6498" y1="1" x2="14.6142" y2="22.959" gradientUnits="userSpaceOnUse">
<stop stop-color="#9ECBFF"/>
<stop offset="0.411458" stop-color="#6FA0FF"/>
<stop offset="1" stop-color="#AF93FF"/>
</linearGradient>
</defs>
</svg>
